<?xml version="1.0" standalone="no"?>
<!DOCTYPE svg PUBLIC "-//W3C//DTD SVG 20010904//EN"
 "http://www.w3.org/TR/2001/REC-SVG-20010904/DTD/svg10.dtd">
<svg version="1.0" xmlns="http://www.w3.org/2000/svg"
 width="700.000000pt" height="700.000000pt" viewBox="0 0 700.000000 700.000000"
 preserveAspectRatio="xMidYMid meet">
<metadata>
Created by potrace 1.14, written by Peter Selinger 2001-2017
</metadata>
<g transform="translate(0.000000,700.000000) scale(0.100000,-0.100000)"
fill="#000000" stroke="none">
<path d="M1555 6989 c-589 -74 -1087 -419 -1358 -940 -59 -114 -125 -291 -151
-409 -45 -199 -45 -163 -45 -2150 0 -1037 4 -1905 9 -1930 4 -25 11 -65 15
-90 31 -215 137 -485 266 -677 265 -398 661 -663 1134 -759 11 -2 31 -6 45 -9
14 -3 59 -8 100 -12 93 -9 3759 -10 3855 -1 107 10 262 44 376 84 403 138 730
403 949 766 28 46 50 87 50 92 0 5 6 17 13 25 26 31 119 279 133 355 2 11 10
53 19 91 8 39 19 111 23 160 10 102 9 3842 0 3865 -4 8 -9 35 -12 60 -18 153
-82 353 -166 521 -36 71 -106 190 -132 224 -4 6 -27 35 -50 65 -47 61 -110
131 -178 196 -184 175 -398 305 -634 386 -147 50 -234 70 -388 88 -96 11
-3782 10 -3873 -1z"/>
</g>
</svg>
