<?xml version="1.0" encoding="UTF-8" standalone="no"?>
<!DOCTYPE svg PUBLIC "-//W3C//DTD SVG 1.1//EN" "http://www.w3.org/Graphics/SVG/1.1/DTD/svg11.dtd">
<svg width="100%" height="100%" viewBox="0 0 1466 414" version="1.1" xmlns="http://www.w3.org/2000/svg" xmlns:xlink="http://www.w3.org/1999/xlink" xml:space="preserve" xmlns:serif="http://www.serif.com/" style="fill-rule:evenodd;clip-rule:evenodd;stroke-linejoin:round;stroke-miterlimit:2;">
    <g transform="matrix(1,0,0,1,-428.68,-2497.72)">
        <g transform="matrix(0.331391,0,0,0.331391,241.554,2151.66)">
            <g transform="matrix(1,0,0,0.85,-33.5404,204.561)">
                <path d="M1060.75,1809.42C1135.53,1859.26 1227.06,1859.25 1301.83,1809.38C1411.56,1736.22 1575.29,1627.03 1702.13,1542.45C1740.43,1516.91 1764.1,1469.11 1764.1,1417.32C1764.1,1365.53 1740.43,1317.74 1702.13,1292.2C1575.29,1207.62 1411.56,1098.43 1301.83,1025.26C1227.06,975.399 1135.53,975.387 1060.75,1025.23C950.969,1098.39 787.124,1207.59 660.202,1292.18C621.889,1317.72 598.209,1365.52 598.209,1417.32C598.209,1469.13 621.889,1516.93 660.202,1542.46C787.124,1627.05 950.969,1736.25 1060.75,1809.42Z" style="fill:url(#_Linear1);"/>
            </g>
            <g transform="matrix(1,0,0,1,-33.503,-73.0907)">
                <path d="M1299.84,1918.29C1226,1959.31 1136.21,1959.31 1062.36,1918.29C982.39,1873.86 880.251,1817.11 816.446,1781.66C803.824,1774.65 788.435,1774.84 775.99,1782.17C763.546,1789.49 755.906,1802.85 755.906,1817.29C755.906,1860.45 755.906,1915.88 755.906,1959.54C755.906,2003.95 779.986,2044.87 818.81,2066.43C882.798,2101.95 983.518,2157.88 1062.57,2201.78C1136.43,2242.78 1226.22,2242.76 1300.05,2201.72C1379,2157.84 1479.55,2101.95 1543.44,2066.43C1582.24,2044.87 1606.3,2003.97 1606.3,1959.58L1606.3,1817.29C1606.3,1802.85 1598.66,1789.49 1586.21,1782.17C1573.77,1774.84 1558.38,1774.65 1545.76,1781.66C1481.95,1817.11 1379.81,1873.86 1299.84,1918.29Z" style="fill:url(#_Linear2);"/>
            </g>
            <g transform="matrix(0.673944,0.180583,-0.180583,0.673944,929.259,343.277)">
                <path d="M1379.29,2082.47C1319.01,2110.39 1251.86,2125.98 1181.1,2125.98C920.355,2125.98 708.661,1914.29 708.661,1653.54C708.661,1392.8 920.355,1181.1 1181.1,1181.1C1441.85,1181.1 1653.54,1392.8 1653.54,1653.54C1653.54,1724.3 1637.95,1791.45 1610.02,1851.74L1889.22,2130.93L1889.2,2130.95C1918.73,2160.49 1937.01,2201.28 1937.01,2246.3C1937.01,2291.32 1918.73,2332.11 1889.2,2361.64C1859.67,2391.17 1818.88,2409.45 1773.86,2409.45C1728.83,2409.45 1688.05,2391.17 1658.51,2361.64L1658.49,2361.66L1379.29,2082.47ZM1181.1,1417.32C1050.73,1417.32 944.882,1523.17 944.882,1653.54C944.882,1783.92 1050.73,1889.76 1181.1,1889.76C1311.48,1889.76 1417.32,1783.92 1417.32,1653.54C1417.32,1523.17 1311.48,1417.32 1181.1,1417.32Z" style="fill:url(#_Linear3);"/>
            </g>
        </g>
        <g transform="matrix(4.1157,0,0,4.1157,-3187.74,-8402.28)">
            <g transform="matrix(50,0,0,50,990.181,2716.82)">
                <path d="M0.169,-0.727L0.358,-0.155L0.366,-0.155L0.555,-0.727L0.699,-0.727L0.443,-0L0.281,-0L0.024,-0.727L0.169,-0.727Z" style="fill:rgb(29,78,216);fill-rule:nonzero;"/>
            </g>
            <g transform="matrix(50,0,0,50,1021.49,2716.82)">
                <path d="M0.146,0.205C0.129,0.205 0.112,0.203 0.098,0.2C0.083,0.198 0.071,0.195 0.062,0.191L0.092,0.091C0.111,0.096 0.127,0.099 0.142,0.099C0.157,0.099 0.17,0.094 0.181,0.085C0.192,0.076 0.202,0.062 0.209,0.041L0.22,0.011L0.023,-0.545L0.159,-0.545L0.285,-0.134L0.29,-0.134L0.416,-0.545L0.553,-0.545L0.335,0.066C0.325,0.095 0.311,0.12 0.294,0.14C0.278,0.161 0.257,0.177 0.233,0.188C0.208,0.199 0.18,0.205 0.146,0.205Z" style="fill:rgb(29,78,216);fill-rule:nonzero;"/>
            </g>
            <g transform="matrix(50,0,0,50,1046.83,2716.82)">
                <path d="M0.072,-0L0.072,-0.727L0.2,-0.727L0.2,-0.455L0.206,-0.455C0.212,-0.468 0.222,-0.483 0.234,-0.498C0.246,-0.513 0.262,-0.526 0.283,-0.536C0.303,-0.547 0.33,-0.553 0.362,-0.553C0.404,-0.553 0.442,-0.542 0.476,-0.52C0.51,-0.499 0.537,-0.467 0.557,-0.426C0.577,-0.384 0.587,-0.333 0.587,-0.272C0.587,-0.212 0.577,-0.161 0.557,-0.119C0.538,-0.077 0.511,-0.045 0.477,-0.023C0.443,-0.001 0.405,0.01 0.362,0.01C0.331,0.01 0.305,0.004 0.284,-0.006C0.263,-0.016 0.247,-0.029 0.234,-0.044C0.222,-0.059 0.212,-0.073 0.206,-0.086L0.198,-0.086L0.198,-0L0.072,-0ZM0.198,-0.273C0.198,-0.237 0.203,-0.206 0.213,-0.18C0.223,-0.153 0.237,-0.133 0.256,-0.118C0.276,-0.103 0.299,-0.096 0.326,-0.096C0.354,-0.096 0.378,-0.103 0.397,-0.119C0.416,-0.134 0.431,-0.155 0.441,-0.182C0.451,-0.208 0.456,-0.239 0.456,-0.273C0.456,-0.307 0.451,-0.337 0.441,-0.363C0.431,-0.389 0.417,-0.41 0.398,-0.425C0.378,-0.44 0.355,-0.447 0.326,-0.447C0.298,-0.447 0.275,-0.44 0.256,-0.426C0.237,-0.411 0.222,-0.391 0.213,-0.365C0.203,-0.339 0.198,-0.308 0.198,-0.273Z" style="fill:rgb(29,78,216);fill-rule:nonzero;"/>
            </g>
            <g transform="matrix(50,0,0,50,1075.37,2716.82)">
                <path d="M0.308,0.011C0.253,0.011 0.206,-0.001 0.166,-0.024C0.126,-0.047 0.096,-0.079 0.075,-0.121C0.053,-0.163 0.043,-0.213 0.043,-0.27C0.043,-0.326 0.053,-0.375 0.075,-0.417C0.096,-0.46 0.126,-0.493 0.165,-0.517C0.203,-0.541 0.249,-0.553 0.301,-0.553C0.334,-0.553 0.366,-0.547 0.396,-0.536C0.426,-0.526 0.453,-0.509 0.476,-0.487C0.499,-0.464 0.517,-0.436 0.53,-0.401C0.543,-0.366 0.55,-0.325 0.55,-0.277L0.55,-0.237L0.103,-0.237L0.103,-0.324L0.427,-0.324C0.427,-0.349 0.421,-0.371 0.411,-0.39C0.401,-0.409 0.386,-0.425 0.368,-0.436C0.349,-0.447 0.327,-0.452 0.303,-0.452C0.276,-0.452 0.253,-0.446 0.233,-0.433C0.213,-0.421 0.198,-0.404 0.187,-0.384C0.176,-0.363 0.17,-0.341 0.17,-0.316L0.17,-0.241C0.17,-0.209 0.176,-0.182 0.187,-0.159C0.199,-0.137 0.215,-0.119 0.236,-0.107C0.257,-0.095 0.281,-0.089 0.309,-0.089C0.328,-0.089 0.345,-0.092 0.36,-0.097C0.375,-0.103 0.388,-0.111 0.4,-0.121C0.411,-0.132 0.419,-0.145 0.425,-0.16L0.545,-0.146C0.537,-0.115 0.523,-0.087 0.502,-0.064C0.48,-0.04 0.453,-0.022 0.42,-0.009C0.388,0.004 0.35,0.011 0.308,0.011Z" style="fill:rgb(29,78,216);fill-rule:nonzero;"/>
            </g>
            <g transform="matrix(50,0,0,50,1101.98,2716.82)">
                <path d="M0.066,-0L0.066,-0.545L0.191,-0.545L0.191,-0.455L0.196,-0.455C0.206,-0.486 0.223,-0.51 0.248,-0.528C0.272,-0.545 0.3,-0.553 0.331,-0.553C0.338,-0.553 0.346,-0.553 0.355,-0.552C0.364,-0.552 0.371,-0.551 0.377,-0.55L0.377,-0.432C0.372,-0.433 0.363,-0.435 0.351,-0.437C0.34,-0.438 0.328,-0.439 0.318,-0.439C0.294,-0.439 0.273,-0.434 0.254,-0.424C0.236,-0.414 0.221,-0.4 0.211,-0.382C0.2,-0.364 0.195,-0.344 0.195,-0.321L0.195,-0L0.066,-0Z" style="fill:rgb(29,78,216);fill-rule:nonzero;"/>
            </g>
            <g transform="matrix(50,0,0,50,1118.09,2716.82)">
                <path d="M0.467,-0.527C0.464,-0.558 0.45,-0.583 0.425,-0.6C0.401,-0.617 0.369,-0.626 0.33,-0.626C0.302,-0.626 0.279,-0.622 0.259,-0.613C0.24,-0.605 0.225,-0.594 0.214,-0.58C0.204,-0.565 0.198,-0.549 0.198,-0.531C0.198,-0.516 0.202,-0.503 0.209,-0.491C0.216,-0.48 0.225,-0.471 0.237,-0.463C0.249,-0.456 0.263,-0.449 0.277,-0.444C0.292,-0.439 0.307,-0.434 0.322,-0.431L0.39,-0.414C0.417,-0.407 0.444,-0.399 0.469,-0.388C0.495,-0.377 0.518,-0.363 0.538,-0.347C0.558,-0.33 0.574,-0.31 0.586,-0.287C0.598,-0.263 0.604,-0.236 0.604,-0.204C0.604,-0.162 0.593,-0.124 0.571,-0.092C0.549,-0.059 0.518,-0.034 0.477,-0.016C0.436,0.002 0.386,0.011 0.328,0.011C0.271,0.011 0.222,0.002 0.181,-0.015C0.139,-0.033 0.107,-0.058 0.083,-0.092C0.06,-0.126 0.047,-0.167 0.045,-0.215L0.175,-0.215C0.177,-0.19 0.185,-0.168 0.199,-0.152C0.212,-0.135 0.23,-0.122 0.252,-0.114C0.274,-0.106 0.299,-0.102 0.327,-0.102C0.355,-0.102 0.381,-0.106 0.402,-0.115C0.424,-0.123 0.441,-0.135 0.453,-0.151C0.465,-0.166 0.472,-0.184 0.472,-0.205C0.472,-0.224 0.466,-0.24 0.455,-0.252C0.444,-0.265 0.429,-0.275 0.41,-0.284C0.39,-0.292 0.367,-0.299 0.341,-0.306L0.259,-0.327C0.199,-0.343 0.151,-0.366 0.117,-0.398C0.082,-0.429 0.065,-0.471 0.065,-0.523C0.065,-0.566 0.076,-0.603 0.1,-0.635C0.123,-0.667 0.155,-0.693 0.195,-0.71C0.235,-0.728 0.281,-0.737 0.332,-0.737C0.383,-0.737 0.429,-0.728 0.468,-0.71C0.506,-0.693 0.537,-0.668 0.559,-0.636C0.582,-0.605 0.593,-0.568 0.594,-0.527L0.467,-0.527ZM0.252,-0.951L0.324,-0.86L0.396,-0.951L0.509,-0.951L0.509,-0.946L0.375,-0.793L0.274,-0.793L0.14,-0.946L0.14,-0.951L0.252,-0.951Z" style="fill:rgb(59,130,246);fill-rule:nonzero;"/>
            </g>
            <g transform="matrix(50,0,0,50,1147.48,2716.82)">
                <path d="M0.183,-0.171L0.183,-0.326L0.203,-0.326L0.399,-0.545L0.55,-0.545L0.309,-0.277L0.282,-0.277L0.183,-0.171ZM0.066,-0L0.066,-0.727L0.195,-0.727L0.195,-0L0.066,-0ZM0.409,-0L0.231,-0.248L0.318,-0.339L0.562,-0L0.409,-0Z" style="fill:rgb(59,130,246);fill-rule:nonzero;"/>
            </g>
            <g transform="matrix(50,0,0,50,1171.05,2716.82)">
                <path d="M0.304,0.011C0.251,0.011 0.205,-0.001 0.166,-0.024C0.126,-0.048 0.096,-0.081 0.075,-0.123C0.053,-0.165 0.043,-0.214 0.043,-0.27C0.043,-0.327 0.053,-0.376 0.075,-0.419C0.096,-0.461 0.126,-0.494 0.166,-0.517C0.205,-0.541 0.251,-0.553 0.304,-0.553C0.357,-0.553 0.403,-0.541 0.442,-0.517C0.482,-0.494 0.512,-0.461 0.533,-0.419C0.555,-0.376 0.565,-0.327 0.565,-0.27C0.565,-0.214 0.555,-0.165 0.533,-0.123C0.512,-0.081 0.482,-0.048 0.442,-0.024C0.403,-0.001 0.357,0.011 0.304,0.011ZM0.305,-0.092C0.334,-0.092 0.358,-0.1 0.377,-0.116C0.396,-0.132 0.411,-0.154 0.421,-0.181C0.43,-0.208 0.435,-0.238 0.435,-0.271C0.435,-0.304 0.43,-0.335 0.421,-0.362C0.411,-0.389 0.396,-0.41 0.377,-0.426C0.358,-0.443 0.334,-0.451 0.305,-0.451C0.275,-0.451 0.251,-0.443 0.231,-0.426C0.212,-0.41 0.197,-0.389 0.187,-0.362C0.178,-0.335 0.173,-0.304 0.173,-0.271C0.173,-0.238 0.178,-0.208 0.187,-0.181C0.197,-0.154 0.212,-0.132 0.231,-0.116C0.251,-0.1 0.275,-0.092 0.305,-0.092Z" style="fill:rgb(59,130,246);fill-rule:nonzero;"/>
            </g>
            <g transform="matrix(50,0,0,50,1198.38,2716.82)">
                <rect x="0.066" y="-0.727" width="0.129" height="0.727" style="fill:rgb(59,130,246);fill-rule:nonzero;"/>
            </g>
            <g transform="matrix(50,0,0,50,1207.74,2716.82)">
                <path d="M0.414,-0.229L0.414,-0.545L0.542,-0.545L0.542,-0L0.418,-0L0.418,-0.097L0.412,-0.097C0.4,-0.066 0.379,-0.041 0.351,-0.022C0.323,-0.003 0.289,0.007 0.248,0.007C0.212,0.007 0.181,-0.001 0.153,-0.017C0.126,-0.033 0.105,-0.056 0.089,-0.087C0.074,-0.117 0.066,-0.155 0.066,-0.198L0.066,-0.545L0.195,-0.545L0.195,-0.218C0.195,-0.184 0.204,-0.156 0.223,-0.136C0.242,-0.115 0.267,-0.105 0.297,-0.105C0.316,-0.105 0.335,-0.11 0.353,-0.119C0.37,-0.128 0.385,-0.142 0.397,-0.16C0.408,-0.179 0.414,-0.202 0.414,-0.229Z" style="fill:rgb(59,130,246);fill-rule:nonzero;"/>
            </g>
        </g>
    </g>
    <defs>
        <linearGradient id="_Linear1" x1="0" y1="0" x2="1" y2="0" gradientUnits="userSpaceOnUse" gradientTransform="matrix(1417.32,0,0,1186.92,381.31,1606.36)"><stop offset="0" style="stop-color:rgb(59,130,246);stop-opacity:1"/><stop offset="1" style="stop-color:rgb(29,78,216);stop-opacity:1"/></linearGradient>
        <linearGradient id="_Linear2" x1="0" y1="0" x2="1" y2="0" gradientUnits="userSpaceOnUse" gradientTransform="matrix(1417.32,0,0,1186.92,381.31,1606.36)"><stop offset="0" style="stop-color:rgb(59,130,246);stop-opacity:1"/><stop offset="1" style="stop-color:rgb(29,78,216);stop-opacity:1"/></linearGradient>
        <linearGradient id="_Linear3" x1="0" y1="0" x2="1" y2="0" gradientUnits="userSpaceOnUse" gradientTransform="matrix(1228.35,0,0,1228.35,708.661,1795.28)"><stop offset="0" style="stop-color:rgb(219,234,254);stop-opacity:1"/><stop offset="1" style="stop-color:rgb(147,197,253);stop-opacity:1"/></linearGradient>
    </defs>
</svg>
