<?xml version="1.0" encoding="utf-8"?>
<!-- Generator: Adobe Illustrator 27.5.0, SVG Export Plug-In . SVG Version: 6.00 Build 0)  -->
<svg version="1.1" id="Vrstva_1" xmlns="http://www.w3.org/2000/svg" xmlns:xlink="http://www.w3.org/1999/xlink" x="0px" y="0px"
	 viewBox="0 0 777.3 201.9" style="enable-background:new 0 0 777.3 201.9;" xml:space="preserve">
<style type="text/css">
	.st0{fill:#FFFFFF;}
	.st1{fill:#F8263E;}
	.st2{fill:#030452;}
</style>
<g>
	<g>
		<path class="st1" d="M161.6,109c-0.3-1.7-1.4-3.2-3-4l-4.9-2.5v0l-43,0V81.1l-5.9-2.5c-1.5-0.8-3.3-0.8-4.8-0.1l-56.7,27.4
			c-1.9,0.8-3.2,2.6-3.4,4.6c-0.2,2,0.7,4,2.4,5.2l56.3,37.4c11.4,8.1,17.6,8.1,25.6,0l36-39.3C161.4,112.6,161.9,110.8,161.6,109"
			/>
	</g>
	<g>
		<path class="st2" d="M153.3,83.3l-12.4-16.8l-3.8,4.1v12.8h-9.8V42.7h9.8v17.2l15.7-17.2H164l-16.1,17.4L165,83.3H153.3z"/>
		<path class="st2" d="M188.9,63.8c-1.5-0.8-2.9-1.2-4.9-1.2c-3.9,0-6.4,2.2-6.4,7.2v13.5h-9.3V54.7h9.3v5.2c1.1-3.2,4.1-6,7.9-6
			c1.7,0,3.2,0.5,4,1.2L188.9,63.8z"/>
		<path class="st2" d="M218.9,75.5c0,1.5,0.6,2.1,1.8,2.1c0.8,0,1.5-0.1,2.4-0.5v5c-1.4,1-3.2,1.9-6.1,1.9c-3.4,0-5.9-1.8-6.8-5
			c-1.6,3.3-5.2,5-9.6,5c-5.7,0-9.3-2.9-9.3-7.8c0-5.5,4.1-7.8,10.4-9l8-1.4v-0.5c0-2.7-1.4-4.3-4.2-4.3c-2.7,0-4.1,1.7-4.6,4.1
			l-8.6-0.6c1-6.1,5.5-10.4,13.7-10.4c7.5,0,12.8,3.4,12.8,11.2V75.5z M209.7,70.6l-4.7,1c-2.9,0.6-4.7,1.3-4.7,3.5
			c0,1.7,1.3,2.7,3.3,2.7c3.4,0,6.1-2.6,6.1-6.6V70.6z M202.8,51.7l3.5-9h9.5l-6.3,9H202.8z"/>
		<path class="st2" d="M237.1,42.7v40.6h-9.3V42.7H237.1z"/>
		<path class="st2" d="M257.7,84.1c-9.2,0-15.4-6.2-15.4-15.1c0-8.8,6.3-15.1,15.4-15.1c9.2,0,15.5,6.3,15.5,15.1
			C273.1,77.9,266.8,84.1,257.7,84.1z M257.7,77.1c4.1,0,6.1-3.3,6.1-8.1c0-4.8-2-8.1-6.1-8.1c-4.1,0-6,3.3-6,8.1
			C251.7,73.8,253.6,77.1,257.7,77.1z"/>
		<path class="st2" d="M285.6,83.3l-10.9-28.6h9.8l6.8,18.7h0.3l6.8-18.7h9.1l-10.9,28.6H285.6z"/>
		<path class="st2" d="M339.1,73.9c-1.5,6.5-6.6,10.2-14.1,10.2c-9.1,0-15.5-5.5-15.5-14.6c0-9,6.6-15.5,15.3-15.5
			c9.5,0,14.4,6.5,14.4,14.3v2.8h-20.6c0.3,3.8,3.1,6,6.7,6c3.2,0,5.2-1.2,6.3-3.9L339.1,73.9z M330.4,66.1c-0.2-2.8-2-5.4-5.5-5.4
			c-3.7,0-5.5,2.4-6,5.4H330.4z M321.6,51.7l3.5-9h9.5l-6.3,9H321.6z"/>
		<path class="st2" d="M354.6,83.3h-9.3V42.7h9.3v16.4c1.5-3.2,5-5.2,9.3-5.2c7.7,0,10.3,5.4,10.3,11.5v17.9H365V67.7
			c0-4.1-1.4-6.4-4.8-6.4c-3.7,0-5.6,3-5.6,7.5V83.3z"/>
		<path class="st2" d="M402.7,63.8c-1.5-0.8-2.9-1.2-4.9-1.2c-3.9,0-6.4,2.2-6.4,7.2v13.5h-9.3V54.7h9.3v5.2c1.1-3.2,4.1-6,7.9-6
			c1.7,0,3.2,0.5,4,1.2L402.7,63.8z"/>
		<path class="st2" d="M432.2,75.5c0,1.5,0.6,2.1,1.8,2.1c0.8,0,1.5-0.1,2.4-0.5v5c-1.4,1-3.2,1.9-6.1,1.9c-3.4,0-5.9-1.8-6.8-5
			c-1.6,3.3-5.2,5-9.6,5c-5.7,0-9.3-2.9-9.3-7.8c0-5.5,4.1-7.8,10.4-9l8-1.4v-0.5c0-2.7-1.4-4.3-4.2-4.3c-2.7,0-4.1,1.7-4.6,4.1
			l-8.6-0.6c1-6.1,5.5-10.4,13.7-10.4c7.5,0,12.8,3.4,12.8,11.2V75.5z M423,70.6l-4.7,1c-2.9,0.6-4.7,1.3-4.7,3.5
			c0,1.7,1.3,2.7,3.3,2.7c3.4,0,6.1-2.6,6.1-6.6V70.6z"/>
		<path class="st2" d="M461.2,78.2c-1.4,3.4-4.7,5.9-9.6,5.9c-8.4,0-12.8-6.6-12.8-15.1c0-8.4,4.3-15.1,12.8-15.1
			c4.9,0,8.3,2.5,9.6,5.9V42.7h9.3v40.6h-9.3V78.2z M461.2,68.7c0-4.6-2.6-7.5-6.4-7.5c-4.4,0-6.5,3.2-6.5,7.8
			c0,4.7,2.1,7.9,6.5,7.9c3.8,0,6.4-2.9,6.4-7.5V68.7z"/>
		<path class="st2" d="M505.2,73.9c-1.5,6.5-6.6,10.2-14.1,10.2c-9.1,0-15.5-5.5-15.5-14.6c0-9,6.6-15.5,15.3-15.5
			c9.5,0,14.4,6.5,14.4,14.3v2.8h-20.6c0.3,3.8,3.1,6,6.7,6c3.2,0,5.2-1.2,6.3-3.9L505.2,73.9z M496.5,66.1c-0.2-2.8-2-5.4-5.5-5.4
			c-3.7,0-5.5,2.4-6,5.4H496.5z"/>
		<path class="st2" d="M524.6,53.9c8.5,0,13.3,5.6,14,12.4l-7.7,0.6c-0.6-3.9-2.7-5.9-6.2-5.9c-3.6,0-6.1,2.5-6.1,8
			c0,5.5,2.5,8,6.1,8c3.5,0,5.5-2.1,6.2-6l7.7,0.6c-0.7,6.9-5.5,12.4-14,12.4c-9,0-15.5-6-15.5-15.1C509.2,60,515.7,53.9,524.6,53.9
			z"/>
		<path class="st2" d="M553,83.3h-9.3V42.7h9.3v22.6l10.8-10.6h11l-12.1,11.3l12.5,17.3h-10.5l-9-12.1L553,74V83.3z"/>
		<path class="st2" d="M583.3,93.8l4.2-10.2l-11.7-28.9h9.8l6.9,17.9h0.3l7-17.9h9.1l-16.4,39.1H583.3z M588.8,51.7l3.5-9h9.5
			l-6.3,9H588.8z"/>
		<path class="st2" d="M642.1,83.3h-9.3V42.7h9.3v22.6l10.8-10.6h11l-12.1,11.3l12.5,17.3h-10.5l-9-12.1l-2.8,2.8V83.3z"/>
		<path class="st2" d="M688.5,63.8c-1.5-0.8-2.9-1.2-4.9-1.2c-3.9,0-6.4,2.2-6.4,7.2v13.5h-9.3V54.7h9.3v5.2c1.1-3.2,4.1-6,7.9-6
			c1.7,0,3.2,0.5,4,1.2L688.5,63.8z"/>
		<path class="st2" d="M717.9,75.5c0,1.5,0.6,2.1,1.8,2.1c0.8,0,1.5-0.1,2.4-0.5v5c-1.4,1-3.2,1.9-6.1,1.9c-3.4,0-5.9-1.8-6.8-5
			c-1.6,3.3-5.2,5-9.6,5c-5.7,0-9.3-2.9-9.3-7.8c0-5.5,4.1-7.8,10.4-9l8-1.4v-0.5c0-2.7-1.4-4.3-4.2-4.3c-2.7,0-4.1,1.7-4.6,4.1
			l-8.6-0.6c1-6.1,5.5-10.4,13.7-10.4c7.5,0,12.8,3.4,12.8,11.2V75.5z M708.8,70.6l-4.7,1c-2.9,0.6-4.7,1.3-4.7,3.5
			c0,1.7,1.3,2.7,3.3,2.7c3.4,0,6.1-2.6,6.1-6.6V70.6z"/>
		<path class="st2" d="M737.6,85c0,6.6-3.7,9.6-10,9.6c-3.1,0-6.1-0.8-7.9-2.1l1.5-5.7c1.5,0.9,2.8,1.2,4.3,1.2c1.8,0,2.8-1,2.8-3.4
			V54.7h9.3V85z M728.2,42.7h9.5v8.5h-9.5V42.7z"/>
	</g>
</g>
</svg>
