<svg width="30" height="30" fill="none" xmlns="http://www.w3.org/2000/svg"><g fill="#fff"><path d="M3.75 10v13.75c0 2.751 2.242 3.75 3.75 3.75h18.75V25H7.515c-.577-.015-1.265-.242-1.265-1.25s.688-1.235 1.265-1.25H26.25V5c0-1.379-1.121-2.5-2.5-2.5H7.5c-1.508 0-3.75.999-3.75 3.75V10ZM7.5 5h16.25v15H6.25V6.25c0-1.008.688-1.235 1.25-1.25Z"/><path d="m14.996 17.5 4.188-4.111a2.661 2.661 0 0 0 0-3.836 2.781 2.781 0 0 0-3.908 0l-.28.272-.28-.274a2.78 2.78 0 0 0-3.906 0 2.662 2.662 0 0 0 0 3.836l4.186 4.113Z"/></g></svg>