<svg width="30" height="30" fill="none" xmlns="http://www.w3.org/2000/svg"><path d="M5 26.25h12.025a4.993 4.993 0 0 0 3.796-1.746l6.378-7.44a1.251 1.251 0 0 0-.553-2l-2.46-.82a3.805 3.805 0 0 0-3.529.629l-3.98 3.183-.772-1.544a4.974 4.974 0 0 0-4.473-2.762H5a2.502 2.502 0 0 0-2.5 2.5v7.5c0 1.379 1.121 2.5 2.5 2.5Zm0-10h6.432c.954 0 1.81.529 2.237 1.381l.558 1.119H8.75v2.5h7.517c.193-.003.382-.05.553-.137l.004-.002.005-.002h.003l.003-.002h.006c.011.003.004-.002.004-.002.013 0 .003-.001.003-.001l.003-.002h.004l.003-.002.002-.001.004-.002h.002c.004 0 .002-.002.003-.002l.003-.002.003-.002.003-.001.003-.001.003-.002h.005l.002-.002.003-.001c.011-.002.004-.002.004-.002h.002c.048-.03.094-.062.138-.098l5.182-4.147c.328-.26.779-.34 1.175-.208l.696.232-5.166 6.029a2.535 2.535 0 0 1-1.9.86H5v-7.5ZM20 2.5h-.021c-.204.002-1.258.049-2.479.881-1.189-.81-2.217-.875-2.46-.88l-.037-.001h-.005a3.722 3.722 0 0 0-2.65 1.098A3.73 3.73 0 0 0 11.25 6.25c0 1.003.391 1.944 1.076 2.63l4.268 4.482a1.258 1.258 0 0 0 1.812 0l4.245-4.46A3.72 3.72 0 0 0 23.75 6.25a3.73 3.73 0 0 0-1.098-2.651 3.723 3.723 0 0 0-2.65-1.099H20Zm1.25 3.75c0 .334-.13.647-.389.906L17.5 10.688l-3.384-3.554a1.241 1.241 0 0 1-.366-.884c0-.334.13-.647.367-.885.226-.23.534-.361.857-.365.031.001.627.04 1.334.606.1.082.203.174.308.278l.884.883.884-.883c.105-.104.207-.197.308-.278.662-.531 1.22-.597 1.316-.605a1.234 1.234 0 0 1 .876.365c.236.237.366.55.366.884Z" fill="#000"/></svg>
