<svg width="674" height="24" fill="none" xmlns="http://www.w3.org/2000/svg"><path d="m2.22 5.368 2.968 7.826L8.044 5.48H9.36L5.776 15H4.558L.89 5.564l1.33-.196Zm9.506 10.486.392-1.036L9.64 8.434l1.274-.476 1.89 5.124 1.792-4.872h1.386l-3.01 8.022c-.112.308-.29.588-.532.84a3.077 3.077 0 0 1-.826.63c-.308.177-.64.308-.994.392l-.448-1.036c.224-.103.439-.205.644-.308.205-.103.387-.229.546-.378.168-.14.29-.313.364-.518Zm1.022-9.1-.924-.238.756-1.974h1.428l-1.26 2.212ZM17.853 15h-.756V5.27l1.344-.154v9.002l-.588.882Zm.084-4.802-.406-.966c.206-.28.448-.509.728-.686.29-.177.579-.308.868-.392.29-.084.527-.126.714-.126.7 0 1.302.15 1.806.448A2.96 2.96 0 0 1 22.81 9.75c.27.541.406 1.176.406 1.904 0 .7-.14 1.316-.42 1.848-.28.532-.677.947-1.19 1.246-.504.29-1.096.434-1.778.434-.187 0-.425-.042-.714-.126a3.19 3.19 0 0 1-.868-.378 2.452 2.452 0 0 1-.742-.714l.392-.952c.29.364.584.625.882.784a2.29 2.29 0 0 0 1.064.238c.43 0 .789-.103 1.078-.308.299-.215.527-.5.686-.854.159-.355.238-.756.238-1.204 0-.485-.08-.915-.238-1.288a1.946 1.946 0 0 0-.672-.882c-.299-.215-.663-.322-1.092-.322-.41 0-.76.084-1.05.252-.28.159-.564.415-.854.77Zm12.336 1.708h-4.816c.037.41.135.78.294 1.106.168.327.415.583.742.77.326.177.742.266 1.246.266.401 0 .746-.056 1.036-.168.298-.112.634-.257 1.008-.434l.42.98c-.224.13-.467.257-.728.378a4.74 4.74 0 0 1-.826.266c-.29.065-.593.098-.91.098-.803 0-1.48-.15-2.03-.448a2.971 2.971 0 0 1-1.246-1.246c-.27-.541-.406-1.167-.406-1.876 0-.71.13-1.33.392-1.862a2.961 2.961 0 0 1 1.12-1.246c.485-.308 1.064-.462 1.736-.462.71 0 1.278.173 1.708.518.438.345.756.803.952 1.372.205.57.308 1.185.308 1.848v.14Zm-4.788-.91h3.486a3.095 3.095 0 0 0-.294-.966c-.14-.27-.327-.48-.56-.63-.224-.15-.509-.224-.854-.224-.346 0-.644.075-.896.224-.252.15-.453.36-.602.63-.14.27-.234.593-.28.966Zm1.834-5.236 1.05-1.218 1.218.14-1.792 2.072h-.924l-1.806-2.072 1.204-.14 1.05 1.218ZM32.875 15h-1.344V8.21h.756l.434 1.106c.178-.15.397-.308.658-.476.262-.177.532-.327.812-.448a2.08 2.08 0 0 1 .798-.182l.294 1.078c-.242 0-.513.06-.812.182-.289.112-.574.261-.854.448-.27.177-.518.373-.742.588V15Zm11.471-1.428.406.966c-.196.13-.438.247-.728.35-.289.093-.578.163-.868.21-.28.056-.518.084-.714.084-.69 0-1.292-.15-1.806-.448a3.089 3.089 0 0 1-1.162-1.26c-.27-.541-.406-1.167-.406-1.876.01-.71.15-1.33.42-1.862.28-.532.677-.947 1.19-1.246.514-.308 1.12-.462 1.82-.462.187 0 .42.028.7.084.28.047.565.121.854.224.29.093.532.21.728.35l-.392.952c-.289-.121-.578-.229-.868-.322a3.392 3.392 0 0 0-1.036-.14c-.42 0-.784.107-1.092.322a2.157 2.157 0 0 0-.7.868c-.158.364-.242.77-.252 1.218 0 .467.075.887.224 1.26.16.373.388.667.686.882.3.205.663.308 1.092.308.411 0 .756-.042 1.036-.126.29-.084.58-.196.868-.336ZM47.341 15h-1.358V8.21h1.358V15Zm-.658-8.246-.924-.238.756-1.974h1.428l-1.26 2.212ZM50.502 15h-1.344V5.27l1.344-.154V15Zm7.62-3.094h-4.816c.038.41.136.78.294 1.106.168.327.416.583.742.77.327.177.742.266 1.246.266.402 0 .747-.056 1.036-.168.299-.112.635-.257 1.008-.434l.42.98c-.224.13-.466.257-.728.378a4.74 4.74 0 0 1-.826.266c-.289.065-.592.098-.91.098-.802 0-1.479-.15-2.03-.448a2.971 2.971 0 0 1-1.246-1.246c-.27-.541-.406-1.167-.406-1.876 0-.71.131-1.33.392-1.862a2.961 2.961 0 0 1 1.12-1.246c.486-.308 1.064-.462 1.736-.462.71 0 1.279.173 1.708.518.439.345.756.803.952 1.372.206.57.308 1.185.308 1.848v.14Zm-4.788-.91h3.486a3.095 3.095 0 0 0-.294-.966c-.14-.27-.326-.48-.56-.63-.224-.15-.508-.224-.854-.224-.345 0-.644.075-.896.224-.252.15-.452.36-.602.63-.14.27-.233.593-.28.966Z" fill="#0A2F83"/><path d="M68.75 12h148.5" stroke="#C4001F" stroke-opacity=".5"/><path d="M232.318 15.196c-.868 0-1.643-.21-2.324-.63a4.449 4.449 0 0 1-1.61-1.736c-.383-.747-.574-1.591-.574-2.534 0-.961.196-1.815.588-2.562a4.609 4.609 0 0 1 1.61-1.792c.691-.439 1.475-.667 2.352-.686.877 0 1.657.215 2.338.644a4.425 4.425 0 0 1 1.61 1.75c.392.737.588 1.577.588 2.52 0 .961-.201 1.82-.602 2.576a4.591 4.591 0 0 1-1.624 1.778c-.681.43-1.465.653-2.352.672Zm-.014-1.148c.616 0 1.162-.163 1.638-.49.476-.336.849-.793 1.12-1.372.271-.588.406-1.255.406-2.002 0-.728-.135-1.377-.406-1.946-.261-.57-.625-1.013-1.092-1.33a2.652 2.652 0 0 0-1.582-.49 2.77 2.77 0 0 0-1.638.504c-.476.327-.854.78-1.134 1.358-.271.579-.406 1.241-.406 1.988 0 .728.131 1.377.392 1.946.271.57.639 1.017 1.106 1.344.467.327.999.49 1.596.49Zm9.051.952h-1.246l-2.52-6.566 1.288-.476 1.876 5.152 1.792-4.9h1.386L241.355 15Zm9.347-3.094h-4.816c.038.41.136.78.294 1.106.168.327.416.583.742.77.327.177.742.266 1.246.266.402 0 .747-.056 1.036-.168.299-.112.635-.257 1.008-.434l.42.98c-.224.13-.466.257-.728.378-.261.112-.536.2-.826.266a4.116 4.116 0 0 1-.91.098c-.802 0-1.479-.15-2.03-.448a2.975 2.975 0 0 1-1.246-1.246c-.27-.541-.406-1.167-.406-1.876 0-.71.131-1.33.392-1.862a2.967 2.967 0 0 1 1.12-1.246c.486-.308 1.064-.462 1.736-.462.71 0 1.279.173 1.708.518a2.9 2.9 0 0 1 .952 1.372c.206.57.308 1.185.308 1.848v.14Zm-4.788-.91h3.486a3.095 3.095 0 0 0-.294-.966c-.14-.27-.326-.48-.56-.63-.224-.15-.508-.224-.854-.224-.345 0-.644.075-.896.224-.252.15-.452.36-.602.63-.14.27-.233.593-.28.966Zm1.834-5.236 1.05-1.218 1.218.14-1.792 2.072h-.924l-1.806-2.072 1.204-.14 1.05 1.218Zm5.557 9.24h-1.344V8.21h.756l.434 1.106c.177-.15.397-.308.658-.476.261-.177.532-.327.812-.448.289-.121.555-.182.798-.182l.294 1.078c-.243 0-.513.06-.812.182a4.42 4.42 0 0 0-.854.448 5.117 5.117 0 0 0-.742.588V15Zm.238-9.24 1.05-1.218 1.218.14-1.792 2.072h-.924l-1.806-2.072 1.204-.14 1.05 1.218Zm8.945 6.146h-4.816c.037.41.135.78.294 1.106.168.327.415.583.742.77.326.177.742.266 1.246.266.401 0 .746-.056 1.036-.168.298-.112.634-.257 1.008-.434l.42.98c-.224.13-.467.257-.728.378a4.77 4.77 0 0 1-.826.266 4.13 4.13 0 0 1-.91.098c-.803 0-1.48-.15-2.03-.448a2.969 2.969 0 0 1-1.246-1.246c-.271-.541-.406-1.167-.406-1.876 0-.71.13-1.33.392-1.862a2.954 2.954 0 0 1 1.12-1.246c.485-.308 1.064-.462 1.736-.462.709 0 1.278.173 1.708.518.438.345.756.803.952 1.372.205.57.308 1.185.308 1.848v.14Zm-4.788-.91h3.486a3.095 3.095 0 0 0-.294-.966c-.14-.27-.327-.48-.56-.63-.224-.15-.509-.224-.854-.224-.346 0-.644.075-.896.224-.252.15-.453.36-.602.63-.14.27-.234.593-.28.966ZM265.09 15h-1.344V8.21h.938l.238.896c.234-.215.49-.406.77-.574.28-.168.574-.299.882-.392.318-.103.63-.154.938-.154.514 0 .929.112 1.246.336.327.215.565.513.714.896.15.383.224.817.224 1.302V15h-1.344v-4.354c0-.457-.079-.821-.238-1.092-.149-.28-.443-.42-.882-.42-.224 0-.462.051-.714.154a3.5 3.5 0 0 0-.728.392 6.352 6.352 0 0 0-.7.532V15Zm7.588 0h-1.358V8.21h1.358V15Zm-.658-8.246-.924-.238.756-1.974h1.428l-1.26 2.212Z" fill="#C4001F" fill-opacity=".5"/><path d="M284.25 12h148.5" stroke="#C4001F" stroke-opacity=".5"/><path d="M445.354 15h-1.344V5.48h2.73c.672 0 1.279.103 1.82.308.551.196.985.513 1.302.952.317.43.476.999.476 1.708 0 .532-.103.99-.308 1.372a2.67 2.67 0 0 1-.812.952 3.754 3.754 0 0 1-1.19.546 5.443 5.443 0 0 1-1.428.182h-1.246V15Zm1.372-8.386h-1.372v3.766h1.302c.429 0 .812-.06 1.148-.182a1.7 1.7 0 0 0 .798-.616c.205-.28.317-.64.336-1.078 0-.485-.093-.863-.28-1.134a1.424 1.424 0 0 0-.756-.574c-.327-.121-.719-.182-1.176-.182Zm6.36 8.386h-1.344V5.27l1.344-.154V15Zm2.846-1.96c0 .168.042.336.126.504.084.159.21.294.378.406.168.103.378.154.63.154.346 0 .668-.084.966-.252.308-.168.579-.383.812-.644v-1.372h-1.652c-.41 0-.723.121-.938.364a1.233 1.233 0 0 0-.322.84Zm-.42-3.346-.378-1.064c.178-.121.411-.224.7-.308.29-.093.584-.163.882-.21a4.14 4.14 0 0 1 .728-.084c.523 0 .99.107 1.4.322.42.205.747.49.98.854.243.355.364.751.364 1.19V15h-.938l-.168-.644a3.686 3.686 0 0 1-.896.56 2.587 2.587 0 0 1-1.092.252c-.802 0-1.4-.2-1.792-.602-.382-.401-.574-.91-.574-1.526 0-.681.229-1.2.686-1.554.467-.364 1.069-.546 1.806-.546h1.61v-.07c0-.467-.093-.854-.28-1.162-.186-.317-.546-.476-1.078-.476-.401 0-.765.051-1.092.154a6.668 6.668 0 0 0-.868.308Zm9.215-1.4.42 1.022h-1.652V12.9c0 .345.074.63.224.854.158.215.406.322.742.322.112 0 .224-.014.336-.042.121-.037.228-.075.322-.112l.35 1.022a3.001 3.001 0 0 1-.728.238c-.14.037-.28.056-.42.056-.439 0-.822-.08-1.148-.238a1.775 1.775 0 0 1-.756-.728c-.178-.317-.266-.705-.266-1.162V9.316h-.952l-.014-1.022h.966V6.6l1.344-.308v2.002h1.232ZM467.482 15h-.756V5.27l1.344-.154v9.002l-.588.882Zm.084-4.802-.406-.966c.205-.28.448-.509.728-.686.289-.177.579-.308.868-.392a2.67 2.67 0 0 1 .714-.126c.7 0 1.302.15 1.806.448.504.299.891.723 1.162 1.274.271.541.406 1.176.406 1.904 0 .7-.14 1.316-.42 1.848-.28.532-.677.947-1.19 1.246-.504.29-1.097.434-1.778.434a2.67 2.67 0 0 1-.714-.126 3.19 3.19 0 0 1-.868-.378 2.452 2.452 0 0 1-.742-.714l.392-.952c.289.364.583.625.882.784.308.159.663.238 1.064.238.429 0 .789-.103 1.078-.308.299-.215.527-.5.686-.854.159-.355.238-.756.238-1.204 0-.485-.079-.915-.238-1.288a1.942 1.942 0 0 0-.672-.882c-.299-.215-.663-.322-1.092-.322-.411 0-.761.084-1.05.252-.28.159-.565.415-.854.77Zm7.562 2.842c0 .168.042.336.126.504.084.159.21.294.378.406.168.103.378.154.63.154.345 0 .667-.084.966-.252.308-.168.578-.383.812-.644v-1.372h-1.652c-.411 0-.724.121-.938.364a1.229 1.229 0 0 0-.322.84Zm-.42-3.346-.378-1.064c.177-.121.41-.224.7-.308.289-.093.583-.163.882-.21a4.12 4.12 0 0 1 .728-.084c.522 0 .989.107 1.4.322.42.205.746.49.98.854.242.355.364.751.364 1.19V15h-.938l-.168-.644a3.705 3.705 0 0 1-.896.56 2.587 2.587 0 0 1-1.092.252c-.803 0-1.4-.2-1.792-.602-.383-.401-.574-.91-.574-1.526 0-.681.228-1.2.686-1.554.466-.364 1.068-.546 1.806-.546h1.61v-.07c0-.467-.094-.854-.28-1.162-.187-.317-.546-.476-1.078-.476-.402 0-.766.051-1.092.154a6.616 6.616 0 0 0-.868.308Z" fill="#C4001F" fill-opacity=".5"/><path d="M490.75 12h148.5" stroke="#C4001F" stroke-opacity=".5"/><path fill-rule="evenodd" clip-rule="evenodd" d="M666.993 5.435a.75.75 0 0 1 .072 1.058l-6.375 7.312a.75.75 0 1 1-1.13-.985l6.375-7.313a.75.75 0 0 1 1.058-.072Zm4.501 0a.75.75 0 0 1 .07 1.059l-10.5 12a.749.749 0 0 1-1.094.036l-4.5-4.5a.75.75 0 1 1 1.06-1.06l3.933 3.933 9.973-11.397a.75.75 0 0 1 1.058-.07ZM650.97 12.97a.75.75 0 0 1 1.06 0l4.5 4.5a.75.75 0 1 1-1.06 1.06l-4.5-4.5a.75.75 0 0 1 0-1.06Z" fill="#C4001F" fill-opacity=".5"/></svg>